<?xml version="1.0" encoding="UTF-8"?>
<svg width="3528px" height="696px" viewBox="0 0 3528 696" version="1.1" xmlns="http://www.w3.org/2000/svg" xmlns:xlink="http://www.w3.org/1999/xlink">
    <!-- Generator: Sketch 45.2 (43514) - http://www.bohemiancoding.com/sketch -->
    <title>Untitled</title>
    <desc>Created with Sketch.</desc>
    <defs></defs>
    <g id="Page-1" stroke="none" stroke-width="1" fill="none" fill-rule="evenodd">
        <path d="M5.68434189e-14,349.583782 L240,349.583782 L282,225 L351,508.583782 L433,349.583782 L759,349.583782 L759,523.583782 L759,523.583782 C759,545.675172 741.09139,563.583782 719,563.583782 L289,563.583782 L103.79737,695.034401 L103.79737,563.583782 L40,563.583782 L40,563.583782 C17.90861,563.583782 5.95488339e-14,545.675172 5.68434189e-14,523.583782 L5.68434189e-14,349.583782 Z" id="Path-3" fill-opacity="0.5" fill="#FFFFFF"></path>
        <path d="M0,300 L203.501414,300 L288.501414,44 L367.501414,368 L402.501414,300 L758.501414,300 L758.501414,40 L758.501414,40 C758.501414,17.90861 740.592804,2.16210126e-13 718.501414,2.20268248e-13 L40,1.70530257e-13 L40,1.77635684e-13 C17.90861,1.81693806e-13 4.40001235e-15,17.90861 7.10542736e-15,40 L0,300 Z" id="Path-4" fill="#FFFFFF"></path>
        <text id="SparkMD" font-family="STXihei, STHeiti" font-size="575" font-weight="300" fill="#FFFFFF">
            <tspan x="1009" y="495">SparkMD</tspan>
        </text>
    </g>
</svg>